<?xml version="1.0" encoding="utf-8"?>
<!-- Generator: Adobe Illustrator 18.1.1, SVG Export Plug-In . SVG Version: 6.00 Build 0)  -->
<svg version="1.1" xmlns="http://www.w3.org/2000/svg" xmlns:xlink="http://www.w3.org/1999/xlink" x="0px" y="0px"
	 viewBox="0 0 1119.354 282.711" enable-background="new 0 0 1119.354 282.711" xml:space="preserve">
<g id="图层_2">
	<path fill="#B5B5B6" d="M219.638,181.803c-14.545,28.22-43.97,47.52-77.905,47.52c-48.375,0-87.591-39.216-87.591-87.591
		c0-48.375,39.216-87.591,87.591-87.591c24.187,0,46.085,9.804,61.936,25.655l38.284-38.284C216.304,15.864,180.871,0,141.732,0
		C63.456,0,0,63.456,0,141.732s63.456,141.732,141.732,141.732c64.359,0,118.689-42.9,135.978-101.661
		c3.739-12.708,5.754-26.153,5.754-40.071v-8.071H141.732v48.142H219.638z"/>
</g>
<g id="图层_3">
	<g>
		<path fill="#7E7E7F" d="M374.778,69.397c0-11.451-0.197-15.991-0.986-20.532h13.819c-0.79,5.133-0.987,10.661-0.987,20.334v19.347
			h8.884c5.527,0,9.081-0.197,12.635-0.79v12.042c-3.751-0.395-7.896-0.592-12.438-0.592h-9.081v9.278
			c12.635,13.819,19.149,21.519,23.888,28.823l-8.292,8.489c-3.948-6.909-3.948-6.909-15.596-23.887v84.297
			c0,10.66,0.395,17.373,1.185,22.9h-14.215c0.79-5.725,1.185-12.438,1.185-22.9v-55.672c0-6.712,0.396-16.583,1.185-30.797
			c-4.343,17.57-6.515,24.875-11.647,36.72c-3.948,9.674-6.712,14.806-12.24,22.901c-2.961-4.936-4.737-7.107-8.291-10.266
			c13.227-17.965,23.492-42.445,29.415-69.886h-10.66c-6.12,0-10.068,0.197-14.215,0.79v-12.24c3.159,0.592,7.897,0.79,14.412,0.79
			h12.042V69.397z M421.369,173.238c0-8.884,0-11.45-0.592-15.991c-7.107,3.356-7.107,3.356-13.819,6.515
			c-2.962-4.936-3.751-5.922-8.095-10.068c24.875-9.871,39.879-18.36,56.659-32.179c-8.094-7.502-13.227-13.622-23.295-27.836
			c-6.515,9.871-11.45,15.793-19.545,24.085c-2.764-3.751-4.737-5.725-8.884-8.292c17.768-16.386,33.759-41.853,37.707-61.002
			l13.029,3.159c-0.789,1.382-0.986,1.975-4.146,9.082c-0.395,1.382-2.369,5.528-2.961,6.712h33.363
			c10.068,0,14.609-0.197,18.558-0.987l7.699,7.896c-1.579,2.172-1.579,2.369-4.738,7.7c-8.884,15.793-17.768,27.836-29.612,39.286
			c18.359,13.819,32.574,21.124,56.659,29.613c-3.356,4.146-5.331,7.304-7.305,12.042c-8.292-3.554-11.056-4.738-14.609-6.317
			c-0.592,4.541-0.592,6.91-0.592,16.583v35.732c0,10.068,0.197,15.597,0.987,19.939h-13.03v-11.45h-61.396v11.45h-13.03
			c0.79-4.738,0.987-9.871,0.987-19.742V173.238z M491.255,156.655c7.501,0,12.635-0.198,15.398-0.395
			c-14.609-6.712-30.205-16.583-42.445-27.046c-11.253,9.674-23.69,17.965-41.655,27.046c4.738,0.395,5.726,0.395,14.214,0.395
			H491.255z M433.412,206.602h61.396v-39.286h-61.396V206.602z M441.703,78.28c-0.986,1.776-0.986,1.974-3.158,5.527
			c9.673,14.412,14.608,20.334,25.467,30.205c12.24-12.042,18.162-20.137,26.454-35.732H441.703z"/>
		<path fill="#7E7E7F" d="M590.956,205.417c0,11.056,0.197,17.176,1.185,22.901h-14.608c0.789-5.331,1.382-12.438,1.382-22.901
			v-53.5c0-10.068,0.592-22.703,1.579-33.561c-4.936,16.188-9.871,27.441-17.373,40.471c-4.936,8.489-8.884,14.017-16.978,23.887
			c-2.566-4.146-4.541-6.515-8.687-10.266c11.647-12.437,21.124-26.651,29.415-44.616c4.738-9.673,8.687-19.939,10.463-26.651
			h-13.621c-8.292,0-14.412,0.395-19.742,1.185V88.743c4.936,0.79,11.056,1.185,19.939,1.185h14.807V67.817
			c0-7.896-0.396-13.03-1.185-17.965h14.411c-0.79,5.527-0.987,10.068-0.987,17.175v22.9h9.081c7.502,0,13.622-0.395,19.15-0.987
			v13.227c-6.12-0.592-12.043-0.987-19.15-0.987h-9.081v8.489c13.228,13.819,21.321,23.493,30.6,36.522l-8.884,9.082
			c-8.291-13.819-13.621-21.519-21.716-31.39V205.417z M695.39,89.928c8.884,0,15.201-0.395,20.334-1.185v13.622
			c-5.726-0.79-11.647-1.185-20.334-1.185h-19.742c1.579,4.738,8.292,20.531,12.438,29.218c9.477,20.334,20.334,35.338,35.93,49.749
			c-3.75,2.962-6.515,5.726-9.87,10.464c-10.464-12.24-16.583-20.729-23.099-31.587c-8.094-13.819-13.819-26.454-19.149-43.037
			c0.593,8.292,0.987,14.807,0.987,22.901v68.898c0,7.502,0.395,14.412,1.382,20.532h-15.004c0.79-6.713,1.382-13.228,1.382-20.532
			v-65.938c0-4.738,0.593-18.36,1.185-24.677c-11.45,34.548-21.716,51.921-44.419,76.598c-2.764-3.948-5.33-6.712-9.476-9.673
			c15.398-15.004,26.059-29.021,35.14-46.789c6.516-12.438,11.056-23.69,15.201-36.127h-14.214c-7.106,0-13.424,0.395-18.952,0.987
			V88.941c5.33,0.592,11.45,0.987,19.149,0.987h16.583V69.594c0-7.107-0.395-13.622-1.184-19.742h14.608
			c-0.987,5.725-1.185,11.647-1.185,19.742v20.334H695.39z"/>
		<path fill="#7E7E7F" d="M760.739,165.934c-8.884,0-15.201,0.395-22.11,1.185v-13.424c5.33,0.79,10.66,1.185,21.124,1.185h4.54
			v-27.046c0-8.489-0.197-13.622-0.987-18.36c5.133,0.592,9.871,0.79,19.149,0.79h36.522c0-8.687-0.197-12.042-1.185-17.768h14.609
			c-0.79,4.936-1.185,9.279-1.185,15.004c0,1.382,0,1.777,0,2.764h40.076c9.278,0,13.819-0.197,19.149-0.79
			c-0.79,4.738-0.987,9.476-0.987,18.163v27.244h5.528c11.055,0,15.99-0.197,21.519-1.185v13.424
			c-6.91-0.79-13.228-1.185-22.309-1.185h-60.41c8.095,13.425,14.807,20.137,27.639,28.429
			c15.201,9.673,30.402,15.398,54.685,20.926c-3.751,4.541-5.33,7.502-7.305,12.832c-42.839-11.647-69.688-29.81-85.481-57.448
			c-6.515,16.583-15.991,28.428-30.008,38.102c-13.029,9.081-26.06,14.214-47.775,18.952c-1.974-5.133-4.146-9.278-6.909-12.832
			c22.9-3.356,37.51-8.687,50.539-18.162c10.857-7.897,17.965-17.176,23.098-30.798H760.739z M848.788,69.397v-3.949
			c0-4.935-0.395-9.081-0.987-14.017h14.412c-0.79,4.541-1.185,8.884-1.185,14.017v3.949h30.402c10.068,0,16.583-0.395,22.308-1.185
			v13.424c-6.317-0.79-12.239-0.987-22.308-0.987h-30.402v6.12c0,5.528,0.197,8.489,0.789,13.03h-13.819
			c0.593-3.751,0.79-7.699,0.79-12.833v-6.317h-46.985v6.12c0,5.528,0.197,9.081,0.789,13.03h-13.818
			c0.592-4.343,0.789-8.094,0.789-12.833v-6.317h-27.836c-10.068,0-15.793,0.198-21.913,0.987V68.212
			c5.527,0.79,12.042,1.185,21.913,1.185h27.836v-3.949c0-4.935-0.395-9.476-1.185-14.017h14.609
			c-0.79,4.343-1.185,9.082-1.185,14.017v3.949H848.788z M815.424,154.878c1.579-8.489,2.368-16.583,3.355-33.759h-42.05v33.759
			H815.424z M877.018,154.878V121.12H831.02c-0.593,13.622-1.776,24.48-3.356,33.759H877.018z"/>
		<path fill="#7E7E7F" d="M961.715,123.292h-11.253c-6.515,0-9.476,0.197-14.411,0.987V110.46c4.936,0.79,7.896,0.987,15.201,0.987
			h9.081c5.726,0,10.463-0.395,15.201-0.987c-0.79,6.317-0.987,11.055-0.987,20.926v66.135c7.305-4.936,13.03-9.278,22.309-16.78
			l0.987,14.807c-2.962,2.171-5.726,4.146-8.687,6.119c-2.764,1.975-11.846,8.292-27.047,18.755l-6.909-11.253
			c4.738-3.158,5.725-4.737,6.515-9.87V123.292z M957.57,50.049c11.056,8.094,19.741,15.793,29.612,26.256l-9.476,10.068
			c-8.884-10.858-17.373-18.754-29.416-27.638L957.57,50.049z M1021.533,131.188c6.91-18.162,6.91-18.162,10.267-29.81h-14.017
			c-5.923,0-12.24,0.395-16.979,0.987V89.731c5.33,0.79,10.463,0.987,16.979,0.987h16.978c2.764-11.647,3.158-13.424,4.936-22.703
			h-25.862c-8.884,0-13.227,0.198-19.149,0.987V56.17c5.923,0.79,10.858,0.987,19.545,0.987h78.178
			c9.081,0,14.608-0.197,19.741-0.987v12.832c-5.922-0.79-10.266-0.987-19.347-0.987h-41.063
			c-1.974,10.463-3.355,16.583-5.133,22.703h31.192c7.896,0,12.438-0.197,16.978-0.79c-0.592,4.146-0.789,8.489-0.789,16.781v24.479
			h3.355c9.674,0,13.425-0.197,19.15-1.184v13.227c-6.713-0.987-11.648-1.184-19.15-1.184h-87.259
			c-8.884,0-13.424,0.197-19.347,0.987v-12.832c5.527,0.79,10.068,0.987,19.347,0.987H1021.533z M1008.898,175.015
			c0-6.712-0.197-11.45-0.789-16.385c4.936,0.592,9.081,0.79,17.373,0.79h57.843c8.687,0,12.833-0.197,16.979-0.79
			c-0.593,4.146-0.79,9.476-0.79,17.373v32.969c0,8.095,0.395,14.807,0.987,19.149h-13.029v-9.87h-66.53v9.87h-13.029
			c0.592-4.54,0.986-10.66,0.986-19.347V175.015z M1020.941,206.997h66.53v-36.72h-66.53V206.997z M1081.943,131.188v-29.81h-38.299
			c-4.146,14.214-5.527,18.755-9.674,29.81H1081.943z"/>
	</g>
	<g>
	</g>
	<g>
	</g>
	<g>
	</g>
	<g>
	</g>
	<g>
	</g>
	<g>
	</g>
</g>
</svg>
